<svg width="60" height="34" viewBox="0 0 60 34" fill="none" xmlns="http://www.w3.org/2000/svg">
<path d="M59.0176 8.08739C58.787 5.8744 57.7096 3.889 55.9847 2.4925C52.433 -0.385279 47.2185 0.176867 44.3585 3.75066L40.6161 8.42202L43.383 11.8753L47.7151 6.4678C47.8171 6.33842 47.9235 6.22687 48.0255 6.12425C48.2428 5.90116 48.4822 5.71824 48.7305 5.56654C48.9833 5.40592 49.2493 5.28547 49.5198 5.19177C49.9322 5.05346 50.3623 4.97762 50.7968 4.97762C51.0229 4.97762 51.2447 4.99548 51.4619 5.04009C51.5506 5.05348 51.6349 5.07132 51.7235 5.09363C51.7679 5.10255 51.8167 5.11145 51.8566 5.12484C52.0428 5.17838 52.229 5.24534 52.4108 5.32565C52.7168 5.4595 53.0139 5.63794 53.2888 5.86102C54.1135 6.53027 54.6323 7.48062 54.7476 8.54696C54.8584 9.60437 54.5569 10.6395 53.8918 11.4694V11.4783L45.5247 21.9186C45.3695 21.5527 45.1965 21.1824 44.9926 20.8299C44.8862 20.6559 44.7797 20.4819 44.66 20.3079C44.5403 20.1384 44.4206 19.9733 44.2876 19.8082L41.5872 16.4352L40.6605 15.2751L37.8936 11.8307V11.8218L36.0801 9.5553L31.4332 3.75066C30.0408 2.024 28.0721 0.939827 25.8772 0.698897C23.6735 0.462429 21.5185 1.10046 19.7981 2.4925C19.5454 2.69327 19.3103 2.91634 19.0931 3.14388C18.8669 3.37143 18.663 3.61235 18.4679 3.85774C18.326 4.04513 18.1885 4.23254 18.0599 4.43331C17.9358 4.62516 17.8205 4.82146 17.7096 5.02669C17.5633 5.29886 17.4347 5.57548 17.3239 5.86549L15.63 3.75066C14.2377 2.024 12.2734 0.939827 10.0786 0.698897C7.87482 0.462429 5.71987 1.10046 3.99944 2.4925C3.7467 2.69327 3.51612 2.91634 3.29441 3.14388C3.06827 3.37143 2.85988 3.61235 2.66922 3.85774C2.52733 4.04513 2.38985 4.23254 2.2657 4.43331C2.13711 4.62516 2.02627 4.82146 1.91542 5.02669C1.62277 5.56656 1.39661 6.1466 1.23699 6.72662C1.15717 7.02109 1.09067 7.32001 1.04632 7.61448C0.673861 9.87655 1.22812 12.2725 2.76231 14.1954L15.6167 30.2485C17.009 31.9752 18.9778 33.0594 21.1771 33.3003C21.4742 33.3271 21.7757 33.3449 22.0728 33.3449C22.2945 33.3449 22.5073 33.336 22.7246 33.3181C22.9064 33.3048 23.0926 33.2825 23.27 33.2557C23.5449 33.2155 23.8109 33.162 24.0681 33.0951C24.2543 33.046 24.4317 32.9925 24.6135 32.9345C25.0259 32.8006 25.425 32.6355 25.8107 32.4347C26.0058 32.3321 26.192 32.2295 26.3783 32.1135H26.3827C26.5689 31.993 26.7507 31.8726 26.9237 31.7476L25.6378 29.954L24.4095 28.2363L24.4007 28.2274C24.3696 28.2541 24.343 28.272 24.3076 28.2943C24.2544 28.3345 24.1967 28.3746 24.1391 28.4103C24.046 28.4728 23.9528 28.5174 23.8597 28.5709C23.7666 28.6155 23.6735 28.6646 23.5804 28.7048C23.4784 28.745 23.3853 28.7806 23.2877 28.8119C23.1857 28.8431 23.0882 28.8788 22.9906 28.8966C22.9019 28.9234 22.8177 28.9368 22.729 28.9502C22.6492 28.9635 22.5694 28.977 22.4852 28.9814C22.2058 29.0216 21.922 29.0215 21.6338 28.9858C20.574 28.8743 19.6296 28.3523 18.9645 27.5224L6.10564 11.4694C4.82862 9.88994 4.96606 7.60106 6.36723 6.17778C6.46478 6.0707 6.58008 5.96365 6.70866 5.86549C7.41812 5.28993 8.28275 4.98209 9.18731 4.98209C9.3292 4.98209 9.4711 4.99098 9.61299 5.00883C10.6683 5.12483 11.6128 5.63793 12.2779 6.4678L20.8445 17.1624L20.8889 17.1133L29.7216 28.1382L30.3734 28.9546L31.411 30.253C32.8033 31.9797 34.772 33.0638 36.9713 33.3048C37.2684 33.3315 37.5699 33.3494 37.8714 33.3494C38.0178 33.3494 38.1597 33.3404 38.2971 33.336C38.3237 33.336 38.3503 33.336 38.3769 33.3315C38.4213 33.3315 38.4656 33.3226 38.5099 33.3226L38.7272 33.3003C38.7361 33.3003 38.7361 33.3003 38.7405 33.3003C38.8026 33.2914 38.8602 33.2869 38.9135 33.278C39.0066 33.2646 39.0997 33.2512 39.1928 33.2378C39.2327 33.2378 39.2637 33.2289 39.2992 33.2244C39.3391 33.2155 39.379 33.2111 39.4145 33.2066C39.5209 33.1843 39.6273 33.1664 39.7338 33.1397C39.8889 33.1129 40.0353 33.0728 40.1816 33.0326C40.3368 32.9924 40.4876 32.9433 40.6383 32.8898C40.9177 32.7916 41.1926 32.6846 41.4586 32.5552C41.5961 32.4882 41.7291 32.4213 41.871 32.3499C41.9951 32.283 42.1237 32.2072 42.2479 32.1358C42.3809 32.0466 42.5184 31.9618 42.6514 31.8681C42.7711 31.7878 42.882 31.7075 42.9928 31.6182C43.3032 31.3684 43.6047 31.1007 43.8885 30.8107C44.0304 30.6679 44.1634 30.5207 44.2831 30.369L44.3807 30.2485L57.244 14.1954C57.4701 13.9144 57.6696 13.6243 57.8559 13.3254C58.0377 13.0265 58.2018 12.7097 58.3481 12.3974C58.4412 12.1832 58.5299 11.9646 58.6097 11.7505C59.0043 10.5904 59.1506 9.35005 59.0176 8.08739ZM38.306 28.9903C38.2794 28.9903 38.2483 28.9948 38.2173 28.9948C38.1907 29.0037 38.1729 29.0037 38.1463 29.0037C38.0976 29.0126 38.0532 29.0126 38.0045 29.0126H37.969C37.9557 29.0216 37.9379 29.0216 37.9246 29.0216C37.8138 29.0216 37.7074 29.0215 37.601 29.0082C37.5433 29.0171 37.4813 29.0082 37.4236 28.9992C36.3639 28.8877 35.4194 28.3657 34.7543 27.5358L30.267 21.9275L21.8999 11.4872V11.4783C21.2347 10.6484 20.9288 9.61331 21.0441 8.55589C21.1594 7.48955 21.6737 6.53921 22.4984 5.86996C23.2079 5.2944 24.0726 4.98655 24.9816 4.98655C25.1234 4.98655 25.2653 4.99545 25.4072 5.0133C26.4625 5.1293 27.407 5.6424 28.0721 6.47227L35.1312 15.2796L37.8892 18.7329L40.931 22.5298C41.5251 23.266 41.8089 24.1494 41.8089 25.0239C41.8089 25.4076 41.7557 25.7958 41.6493 26.1616C41.5783 26.4115 41.4808 26.6435 41.3655 26.8755C41.2458 27.103 41.1039 27.3217 40.9398 27.5314C40.8512 27.634 40.7669 27.7321 40.6738 27.8258C40.5674 27.9329 40.4565 28.0355 40.3368 28.1337C40.1816 28.2586 40.022 28.3657 39.8579 28.4683C39.787 28.5085 39.7116 28.5486 39.6362 28.5888C39.6185 28.5933 39.5963 28.6066 39.583 28.6155C39.5209 28.6512 39.4588 28.678 39.3968 28.7003C39.1174 28.8208 38.8248 28.91 38.5277 28.9546C38.5188 28.9546 38.5188 28.9636 38.5144 28.9636C38.439 28.9769 38.3725 28.9858 38.306 28.9903Z" fill="url(#paint0_linear_1829_17331)"/>
<defs>
<linearGradient id="paint0_linear_1829_17331" x1="30" y1="0.650637" x2="52.651" y2="29.1647" gradientUnits="userSpaceOnUse">
<stop stop-color="#F6931E"/>
<stop offset="1" stop-color="#6204CC"/>
</linearGradient>
</defs>
</svg>
