<svg width="270" height="85" viewBox="0 0 270 85" fill="none" xmlns="http://www.w3.org/2000/svg">
<rect width="270" height="85" rx="30" fill="#00063F"/>
<path d="M103.583 32.9368C103.353 30.7238 102.275 28.7384 100.55 27.3419C96.9985 24.4641 91.784 25.0262 88.924 28.6L85.1817 33.2714L87.9485 36.7247L92.2806 31.3172C92.3826 31.1878 92.489 31.0762 92.591 30.9736C92.8083 30.7505 93.0477 30.5676 93.2961 30.4159C93.5488 30.2553 93.8148 30.1348 94.0853 30.0411C94.4977 29.9028 94.9278 29.827 95.3623 29.827C95.5885 29.827 95.8102 29.8448 96.0274 29.8895C96.1161 29.9028 96.2004 29.9207 96.2891 29.943C96.3334 29.9519 96.3822 29.9608 96.4221 29.9742C96.6083 30.0277 96.7945 30.0947 96.9763 30.175C97.2823 30.3089 97.5794 30.4873 97.8543 30.7104C98.679 31.3796 99.1978 32.33 99.3131 33.3963C99.4239 34.4537 99.1224 35.4889 98.4573 36.3187V36.3276L90.0902 46.7679C89.935 46.4021 89.7621 46.0318 89.5581 45.6793C89.4517 45.5053 89.3453 45.3313 89.2255 45.1573C89.1058 44.9877 88.9861 44.8226 88.8531 44.6576L86.1527 41.2846L85.226 40.1245L82.4591 36.6801V36.6712L80.6456 34.4047L75.9987 28.6C74.6064 26.8734 72.6376 25.7892 70.4427 25.5483C68.239 25.3118 66.0841 25.9498 64.3636 27.3419C64.1109 27.5426 63.8759 27.7657 63.6586 27.9932C63.4325 28.2208 63.2285 28.4617 63.0334 28.7071C62.8915 28.8945 62.754 29.0819 62.6254 29.2827C62.5013 29.4745 62.386 29.6708 62.2752 29.8761C62.1288 30.1482 62.0002 30.4248 61.8894 30.7149L60.1956 28.6C58.8033 26.8734 56.839 25.7892 54.6441 25.5483C52.4403 25.3118 50.2854 25.9498 48.565 27.3419C48.3122 27.5426 48.0816 27.7657 47.8599 27.9932C47.6338 28.2208 47.4254 28.4617 47.2347 28.7071C47.0928 28.8945 46.9554 29.0819 46.8312 29.2827C46.7026 29.4745 46.5918 29.6708 46.4809 29.8761C46.1883 30.4159 45.9621 30.996 45.8025 31.576C45.7227 31.8704 45.6562 32.1694 45.6118 32.4638C45.2394 34.7259 45.7936 37.1218 47.3278 39.0448L60.1823 55.0979C61.5746 56.8245 63.5433 57.9087 65.7426 58.1496C66.0397 58.1764 66.3412 58.1943 66.6383 58.1943C66.86 58.1943 67.0728 58.1854 67.2901 58.1675C67.4719 58.1541 67.6581 58.1318 67.8355 58.105C68.1104 58.0649 68.3765 58.0114 68.6336 57.9444C68.8199 57.8954 68.9972 57.8418 69.179 57.7838C69.5914 57.65 69.9905 57.4849 70.3762 57.2841C70.5713 57.1815 70.7576 57.0788 70.9438 56.9628H70.9482C71.1345 56.8424 71.3163 56.7219 71.4892 56.597L70.2033 54.8034L68.9751 53.0857L68.9662 53.0767C68.9351 53.1035 68.9086 53.1214 68.8731 53.1437C68.8199 53.1838 68.7622 53.224 68.7046 53.2597C68.6115 53.3221 68.5184 53.3667 68.4252 53.4203C68.3321 53.4649 68.239 53.514 68.1459 53.5542C68.0439 53.5943 67.9508 53.63 67.8533 53.6612C67.7513 53.6925 67.6537 53.7281 67.5561 53.746C67.4675 53.7728 67.3832 53.7861 67.2946 53.7995C67.2147 53.8129 67.1349 53.8263 67.0507 53.8308C66.7713 53.8709 66.4875 53.8709 66.1993 53.8352C65.1396 53.7237 64.1951 53.2017 63.53 52.3718L50.6712 36.3187C49.3941 34.7393 49.5316 32.4504 50.9328 31.0271C51.0303 30.9201 51.1456 30.813 51.2742 30.7149C51.9836 30.1393 52.8483 29.8314 53.7528 29.8314C53.8947 29.8314 54.0366 29.8403 54.1785 29.8582C55.2338 29.9742 56.1783 30.4873 56.8434 31.3172L65.4101 42.0118L65.4544 41.9627L74.2871 52.9875L74.9389 53.804L75.9765 55.1023C77.3688 56.829 79.3375 57.9132 81.5368 58.1541C81.8339 58.1809 82.1354 58.1987 82.437 58.1987C82.5833 58.1987 82.7252 58.1898 82.8626 58.1853C82.8892 58.1853 82.9158 58.1854 82.9424 58.1809C82.9868 58.1809 83.0311 58.172 83.0755 58.172L83.2928 58.1496C83.3016 58.1496 83.3016 58.1496 83.306 58.1496C83.3681 58.1407 83.4258 58.1363 83.479 58.1274C83.5721 58.114 83.6652 58.1006 83.7583 58.0872C83.7982 58.0872 83.8293 58.0782 83.8647 58.0738C83.9046 58.0649 83.9446 58.0604 83.98 58.056C84.0865 58.0337 84.1929 58.0158 84.2993 57.989C84.4545 57.9623 84.6008 57.9221 84.7471 57.882C84.9023 57.8418 85.0531 57.7927 85.2038 57.7392C85.4832 57.641 85.7581 57.5339 86.0241 57.4045C86.1616 57.3376 86.2946 57.2707 86.4365 57.1993C86.5607 57.1324 86.6892 57.0565 86.8134 56.9852C86.9464 56.8959 87.0839 56.8112 87.2169 56.7175C87.3366 56.6372 87.4475 56.5568 87.5583 56.4676C87.8687 56.2177 88.1702 55.9501 88.454 55.6601C88.5959 55.5173 88.7289 55.3701 88.8487 55.2184L88.9462 55.0979L101.809 39.0448C102.036 38.7637 102.235 38.4737 102.421 38.1747C102.603 37.8758 102.767 37.5591 102.914 37.2467C103.007 37.0326 103.095 36.814 103.175 36.5998C103.57 35.4398 103.716 34.1994 103.583 32.9368ZM82.8715 53.8397C82.8449 53.8397 82.8139 53.8441 82.7828 53.8441C82.7562 53.853 82.7385 53.8531 82.7119 53.8531C82.6631 53.862 82.6188 53.862 82.57 53.862H82.5345C82.5212 53.8709 82.5035 53.8709 82.4902 53.8709C82.3793 53.8709 82.2729 53.8709 82.1665 53.8575C82.1088 53.8664 82.0468 53.8575 81.9891 53.8486C80.9294 53.7371 79.9849 53.215 79.3198 52.3852L74.8325 46.7769L66.4654 36.3365V36.3276C65.8003 35.4977 65.4943 34.4627 65.6096 33.4053C65.7249 32.3389 66.2392 31.3886 67.064 30.7193C67.7734 30.1438 68.6381 29.8359 69.5471 29.8359C69.689 29.8359 69.8308 29.8448 69.9727 29.8627C71.028 29.9787 71.9725 30.4918 72.6376 31.3216L79.6967 40.129L82.4547 43.5823L85.4965 47.3792C86.0907 48.1153 86.3744 48.9988 86.3744 49.8733C86.3744 50.257 86.3212 50.6451 86.2148 51.011C86.1439 51.2608 86.0463 51.4928 85.931 51.7248C85.8113 51.9524 85.6694 52.171 85.5054 52.3807C85.4167 52.4834 85.3324 52.5815 85.2393 52.6752C85.1329 52.7823 85.022 52.8849 84.9023 52.9831C84.7471 53.108 84.5875 53.2151 84.4234 53.3177C84.3525 53.3578 84.2771 53.398 84.2017 53.4382C84.184 53.4426 84.1618 53.456 84.1485 53.4649C84.0865 53.5006 84.0244 53.5274 83.9623 53.5497C83.6829 53.6702 83.3903 53.7594 83.0932 53.804C83.0843 53.804 83.0843 53.8129 83.0799 53.8129C83.0045 53.8263 82.938 53.8352 82.8715 53.8397Z" fill="url(#paint0_linear_6679_21)"/>
<path d="M129.927 44.1306L125.667 33.9676L121.45 44.1306L118.163 34.7244H114.531L120.888 50.7042L125.667 40.7574L130.424 50.7042L136.803 34.7244H133.17L129.927 44.1306Z" fill="white"/>
<path d="M135.893 44.8875C135.893 45.911 136.131 46.8192 136.607 47.612C137.097 48.3905 137.753 48.9959 138.575 49.4284C139.411 49.8609 140.355 50.0771 141.407 50.0771C142.46 50.0771 143.397 49.8609 144.218 49.4284C145.055 48.9959 145.71 48.3905 146.186 47.612C146.676 46.8192 146.921 45.911 146.921 44.8875C146.921 43.8495 146.676 42.9413 146.186 42.1629C145.71 41.3844 145.055 40.779 144.218 40.3465C143.397 39.914 142.46 39.6978 141.407 39.6978C140.355 39.6978 139.411 39.914 138.575 40.3465C137.753 40.779 137.097 41.3844 136.607 42.1629C136.131 42.9413 135.893 43.8495 135.893 44.8875ZM138.748 44.8875C138.748 44.3253 138.863 43.8279 139.094 43.3954C139.339 42.963 139.663 42.6314 140.067 42.4008C140.47 42.1701 140.917 42.0548 141.407 42.0548C141.897 42.0548 142.344 42.1701 142.748 42.4008C143.152 42.6314 143.469 42.963 143.699 43.3954C143.945 43.8279 144.067 44.3253 144.067 44.8875C144.067 45.4497 143.945 45.947 143.699 46.3795C143.469 46.7975 143.152 47.1291 142.748 47.3742C142.344 47.6048 141.897 47.7202 141.407 47.7202C140.917 47.7202 140.47 47.6048 140.067 47.3742C139.663 47.1291 139.339 46.7975 139.094 46.3795C138.863 45.947 138.748 45.4497 138.748 44.8875Z" fill="white"/>
<path d="M151.769 39.914H149.023V49.8609H151.769V39.914ZM154.688 42.8332L155.964 40.4546C155.762 40.1952 155.495 40.0005 155.164 39.8708C154.847 39.7411 154.508 39.6762 154.147 39.6762C153.628 39.6762 153.124 39.8636 152.634 40.2384C152.144 40.5988 151.747 41.0889 151.444 41.7088C151.142 42.3143 150.99 43.0134 150.99 43.8063L151.769 44.5847C151.769 44.109 151.826 43.7054 151.942 43.3738C152.071 43.0278 152.259 42.7611 152.504 42.5737C152.749 42.3863 153.045 42.2926 153.391 42.2926C153.679 42.2926 153.917 42.3431 154.104 42.444C154.306 42.5305 154.501 42.6602 154.688 42.8332Z" fill="white"/>
<path d="M157.383 32.9945V49.8609H160.086V32.9945H157.383ZM163.741 39.914L159.459 44.0225L164.195 49.8609H167.525L162.811 44.0225L167.092 39.914H163.741Z" fill="white"/>
<path d="M182.824 44.1306L178.564 33.9676L174.348 44.1306L171.061 34.7244H167.428L173.785 50.7042L178.564 40.7574L183.321 50.7042L189.7 34.7244H186.068L182.824 44.1306Z" fill="white"/>
<path d="M194.153 50.0771C195.35 50.0771 196.373 49.8465 197.224 49.3852C198.089 48.9094 198.781 48.2031 199.3 47.2661L196.856 46.5092C196.568 46.9849 196.201 47.3453 195.754 47.5904C195.321 47.8211 194.795 47.9364 194.175 47.9364C193.627 47.9364 193.159 47.8139 192.77 47.5688C192.38 47.3237 192.085 46.9705 191.883 46.5092C191.696 46.0479 191.602 45.4857 191.602 44.8226C191.616 44.1306 191.717 43.554 191.905 43.0927C192.106 42.617 192.388 42.2638 192.748 42.0332C193.123 41.7881 193.584 41.6656 194.132 41.6656C194.579 41.6656 194.968 41.7665 195.3 41.9683C195.631 42.1701 195.883 42.444 196.056 42.79C196.244 43.136 196.337 43.554 196.337 44.0441C196.337 44.1451 196.309 44.2748 196.251 44.4334C196.208 44.5775 196.157 44.6929 196.1 44.7793L196.856 43.7847H190.391V45.5145H199.3C199.314 45.4281 199.322 45.3127 199.322 45.1686C199.336 45.0244 199.343 44.8875 199.343 44.7577C199.343 43.691 199.141 42.7828 198.738 42.0332C198.334 41.2691 197.743 40.6925 196.965 40.3033C196.201 39.8996 195.271 39.6978 194.175 39.6978C193.08 39.6978 192.128 39.914 191.321 40.3465C190.514 40.7646 189.886 41.3628 189.44 42.1413C189.007 42.9053 188.791 43.8207 188.791 44.8875C188.791 45.9398 189.007 46.8552 189.44 47.6337C189.886 48.3977 190.514 48.9959 191.321 49.4284C192.128 49.8609 193.072 50.0771 194.153 50.0771Z" fill="white"/>
<path d="M206.148 50.0771C207.344 50.0771 208.368 49.8465 209.218 49.3852C210.083 48.9094 210.775 48.2031 211.294 47.2661L208.851 46.5092C208.562 46.9849 208.195 47.3453 207.748 47.5904C207.315 47.8211 206.789 47.9364 206.169 47.9364C205.622 47.9364 205.153 47.8139 204.764 47.5688C204.375 47.3237 204.079 46.9705 203.877 46.5092C203.69 46.0479 203.596 45.4857 203.596 44.8226C203.611 44.1306 203.712 43.554 203.899 43.0927C204.101 42.617 204.382 42.2638 204.742 42.0332C205.117 41.7881 205.578 41.6656 206.126 41.6656C206.573 41.6656 206.962 41.7665 207.294 41.9683C207.625 42.1701 207.878 42.444 208.051 42.79C208.238 43.136 208.332 43.554 208.332 44.0441C208.332 44.1451 208.303 44.2748 208.245 44.4334C208.202 44.5775 208.152 44.6929 208.094 44.7793L208.851 43.7847H202.385V45.5145H211.294C211.309 45.4281 211.316 45.3127 211.316 45.1686C211.33 45.0244 211.337 44.8875 211.337 44.7577C211.337 43.691 211.136 42.7828 210.732 42.0332C210.328 41.2691 209.737 40.6925 208.959 40.3033C208.195 39.8996 207.265 39.6978 206.169 39.6978C205.074 39.6978 204.122 39.914 203.315 40.3465C202.508 40.7646 201.881 41.3628 201.434 42.1413C201.001 42.9053 200.785 43.8207 200.785 44.8875C200.785 45.9398 201.001 46.8552 201.434 47.6337C201.881 48.3977 202.508 48.9959 203.315 49.4284C204.122 49.8609 205.067 50.0771 206.148 50.0771Z" fill="white"/>
<path d="M213.385 32.9945V49.8609H216.088V32.9945H213.385ZM219.742 39.914L215.461 44.0225L220.196 49.8609H223.526L218.812 44.0225L223.094 39.914H219.742Z" fill="white"/>
<defs>
<linearGradient id="paint0_linear_6679_21" x1="74.5655" y1="25.5" x2="97.2165" y2="54.0141" gradientUnits="userSpaceOnUse">
<stop stop-color="#F6931E"/>
<stop offset="1" stop-color="#6204CC"/>
</linearGradient>
</defs>
</svg>
